<!-- icon666.com - MILLIONS vector ICONS FREE --><svg id="Capa_1" fill="#fff" enable-background="new 0 0 511.972 511.972" viewBox="0 0 511.972 511.972" xmlns="http://www.w3.org/2000/svg"><g><path d="m442.46 340.042c12.054-17.336 18.985-36.098 20.275-54.636 8.853-3.028 15.239-11.425 15.239-21.291 0-9.9-6.43-18.321-15.332-21.322-2.696-26.603-22.202-48.614-48.27-54.437-2.223-19.247-13.183-36.224-30.146-46.233-16.771-9.896-36.586-11.45-54.272-4.532-11.432-17.536-30.807-28.164-52.112-28.164s-40.683 10.63-52.115 28.168c-14.837-5.782-31.362-5.646-46.33.57l5.752 13.854c13.08-5.432 27.717-4.754 40.153 1.858l6.792 3.609 3.438-6.881c8.067-16.147 24.279-26.179 42.311-26.179s34.244 10.031 42.31 26.179l3.438 6.882 6.793-3.61c14.574-7.749 31.854-7.312 46.222 1.165 14.249 8.408 22.915 23.294 23.181 39.822l.105 6.547 6.502.779c21.179 2.535 37.693 18.911 40.975 39.425h-339.05c3.283-20.514 19.796-36.889 40.974-39.425l6.502-.779.105-6.547c.231-14.379 6.52-27.184 17.706-36.057l-9.322-11.752c-12.915 10.245-21.08 25.046-22.969 41.3-26.068 5.823-45.575 27.835-48.272 54.438-8.901 3.001-15.332 11.422-15.332 21.322 0 9.863 6.382 18.258 15.23 21.288 2.39 36.34 24.969 63.553 41.168 78.582l-71.557 28.649-28.556-.001.001 119.338h31.273l80.884-28.236 131.769 11.143 71.826-37.264-6.909-13.314-67.977 35.266-130.633-11.047-81.503 28.453h-13.728l-.001-89.338 16.446.001 96.423-38.604 103.088-6.052c3.974-.242 17.154-.189 20.035 10.177 2.104 7.574-2.446 15.592-10.39 18.437l-97.828 19.464 2.928 14.711 37.424-7.445 65.739 23.299 116.066-60.216c5.305-2.752 11.393-3.266 17.146-1.442 5.752 1.822 10.435 5.747 13.188 11.052 1.904 3.672.467 8.208-3.204 10.112l-69.901 36.265 6.908 13.314 69.9-36.265c11.013-5.712 15.325-19.32 9.611-30.334-4.598-8.861-12.4-15.412-21.972-18.444-.222-.07-.446-.128-.669-.194 8.533-7.718 16.217-16.357 22.524-25.428zm-342.249-83.427h355.263c4.136 0 7.5 3.364 7.5 7.5s-3.364 7.5-7.5 7.5h-355.263c-4.136 0-7.5-3.364-7.5-7.5s3.365-7.5 7.5-7.5zm163.865 91.389-105.521 6.194-8.867 3.55c-32.017-26.573-39.91-54.945-41.574-71.133h339.49c-3.506 36.009-31.562 66.107-55.909 81.644l-44.506 23.09h-50.468c3.682-6.621 4.861-14.51 2.722-22.209-3.915-14.088-17.454-22.177-35.367-21.136zm17.66 77.302-35.854-12.706 31.418-6.251h40.976z"></path><path d="m366.98 181.597h15v15.001h-15z"></path><path d="m336.98 166.597h15v15h-15z"></path><path d="m407.39 130.104 13.119-7.273c-9.723-17.535-5.756-25.705-.734-36.05 5.527-11.385 12.406-25.554-3.608-49.28l-12.434 8.393c11.179 16.561 7.559 24.017 2.549 34.337-5.522 11.371-12.392 25.523 1.108 49.873z"></path><path d="m354.891 92.604 13.119-7.273c-9.723-17.535-5.756-25.705-.734-36.05 5.527-11.385 12.406-25.554-3.61-49.28l-12.432 8.393c11.179 16.561 7.559 24.017 2.548 34.337-5.521 11.371-12.391 25.523 1.109 49.873z"></path><path d="m135.175 122.83 13.119 7.273c13.5-24.35 6.63-38.502 1.109-49.874-5.011-10.32-8.631-17.776 2.548-34.337l-12.431-8.392c-16.017 23.727-9.138 37.896-3.61 49.28 5.021 10.345 8.988 18.515-.735 36.05z"></path><path d="m187.675 85.33 13.119 7.273c13.5-24.35 6.629-38.502 1.108-49.874-5.011-10.32-8.631-17.776 2.548-34.337l-12.431-8.392c-16.017 23.727-9.138 37.896-3.61 49.28 5.022 10.345 8.989 18.515-.734 36.05z"></path></g></svg>